HIERARCHY
ROOT hip
{
	OFFSET 0.000000 0.000000 0.000000 
	CHANNELS 6 Xposition Yposition Zposition Xrotation Zrotation Yrotation
	JOINT abdomen
	{
		OFFSET 0.000000 3.402643 0.000000 
		CHANNELS 3 Xrotation Zrotation Yrotation
		JOINT chest
		{
			OFFSET 0.000000 8.438565 -0.680529 
			CHANNELS 3 Xrotation Zrotation Yrotation
			JOINT neck
			{
				OFFSET 0.000000 10.207942 -0.272212 
				CHANNELS 3 Xrotation Zrotation Yrotation
				JOINT head
				{
					OFFSET 0.000000 3.130431 0.000000 
					CHANNELS 3 Xrotation Zrotation Yrotation
					End Site
					{
						OFFSET 0.000000 3.130435 0.000000 
					}
				}
			}
			JOINT lCollar
			{
				OFFSET 3.470700 6.669187 -0.816635 
				CHANNELS 3 Yrotation Zrotation Xrotation
				JOINT lShldr
				{
					OFFSET 3.198488 0.000000 0.000000 
					CHANNELS 3 Zrotation Yrotation Xrotation
					JOINT lForeArm
					{
						OFFSET 10.139888 0.000000 0.000000 
						CHANNELS 3 Yrotation Zrotation Xrotation
						JOINT lHand
						{
							OFFSET 8.370511 0.000000 0.000000 
							CHANNELS 3 Zrotation Yrotation Xrotation
							End Site
							{
								OFFSET 4.083176 0.000000 0.000000 
							}
						}
					}
				}
			}
			JOINT rCollar
			{
				OFFSET -3.470700 6.669187 -0.816635 
				CHANNELS 3 Yrotation Zrotation Xrotation
				JOINT rShldr
				{
					OFFSET -3.198488 0.000000 0.000000 
					CHANNELS 3 Zrotation Yrotation Xrotation
					JOINT rForeArm
					{
						OFFSET -10.139888 0.000000 0.000000 
						CHANNELS 3 Yrotation Zrotation Xrotation
						JOINT rHand
						{
							OFFSET -8.370511 0.000000 0.000000 
							CHANNELS 3 Zrotation Yrotation Xrotation
							End Site
							{
								OFFSET -4.083176 0.000000 0.000000 
							}
						}
					}
				}
			}
		}
	}
	JOINT lThigh
	{
		OFFSET 5.308129 -1.633274 1.361059 
		CHANNELS 3 Xrotation Zrotation Yrotation
		JOINT lShin
		{
			OFFSET -2.041588 -20.007561 0.000000 
			CHANNELS 3 Xrotation Zrotation Yrotation
			JOINT lFoot
			{
				OFFSET 0.000000 -19.190928 -1.224953 
				CHANNELS 3 Xrotation Yrotation Zrotation
				End Site
				{
					OFFSET 0.000000 -2.449906 4.627600 
				}
			}
		}
	}
	JOINT rThigh
	{
		OFFSET -5.308129 -1.633274 1.361059 
		CHANNELS 3 Xrotation Zrotation Yrotation
		JOINT rShin
		{
			OFFSET 2.041588 -20.007561 0.000000 
			CHANNELS 3 Xrotation Zrotation Yrotation
			JOINT rFoot
			{
				OFFSET 0.000000 -19.190928 -1.224953 
				CHANNELS 3 Xrotation Yrotation Zrotation
				End Site
				{
					OFFSET 0.000000 -2.449906 4.627600 
				}
			}
		}
	}
}
MOTION
Frames: 14
Frame Time: 0.033333
-4.934564 49.282021 65.381752 21.230469 23.945313 -75.234375 26.640623 -1.191406 -17.167971 -19.560547 -1.083984 -0.215028 51.064453 8.115234 2.472081 -90.400391 -7.148438 -46.485592 12.871094 29.999998 -2.783203 -105.791016 55.820316 -26.953125 -139.101563 2.148437 -2.158569 12.597656 39.287113 16.607748 -16.152344 -30.000000 -5.146484 92.822266 -47.070309 5.654296 124.843758 -1.572266 -2.968482 -33.769531 -57.402344 52.062084 -34.991985 47.289360 41.972057 42.554115 -3.332881 -3.368742 -13.621510 -5.398534 -8.882675 -52.722874 12.988134 5.522720 27.808802 4.720214 2.772743 -3.171550 4.675749 3.041868 
-5.077786 49.255772 65.122437 20.781250 24.687500 -76.187325 26.787109 -1.074219 -17.519587 -19.560547 -1.083984 -0.215028 51.064453 8.115234 2.472081 -90.341797 -6.884766 -46.181637 12.939453 30.000000 -2.783203 -105.849609 55.615231 -27.218500 -139.453125 2.158203 -2.002321 13.144531 38.583981 15.703124 -16.103516 -30.000000 -5.073242 92.812500 -47.207031 5.312500 124.843758 -1.572266 -2.968482 -32.343750 -57.314453 50.694908 -35.197475 48.158417 42.103706 43.427105 -3.752670 -3.621952 -11.177321 -4.754558 -8.682201 -52.853741 13.434115 6.240799 27.109503 4.733680 2.523850 -2.485032 5.038285 3.079913 
-5.187302 49.183311 64.779556 20.292971 25.253908 -77.300522 27.060545 -1.044922 -18.134768 -19.560547 -1.083984 -0.215028 51.064453 8.115234 2.472081 -90.458984 -6.582031 -45.673832 12.714843 29.999998 -2.597656 -105.556641 55.566410 -27.491943 -139.453125 2.158203 -2.002321 13.603515 37.919918 15.214844 -16.201174 -30.000000 -5.302735 93.261719 -47.431641 4.423828 125.205086 -1.542969 -3.183331 -29.804688 -57.529297 48.564453 -35.168083 49.048168 43.080402 43.970737 -3.547899 -3.558969 -9.601589 -4.929912 -9.447140 -53.420471 14.146648 6.342803 27.461454 4.733726 2.698791 -2.791651 5.085503 2.241052 
-5.274158 49.022778 64.436806 19.794920 25.830076 -78.242188 27.197266 -0.927734 -18.486326 -19.560547 -1.083984 -0.215028 51.064453 8.115234 2.472081 -90.751953 -6.240234 -44.981525 12.773438 29.999998 -2.675781 -105.253906 55.527344 -27.570072 -139.453125 2.158203 -2.002321 14.277343 37.929688 15.488280 -16.162109 -30.000000 -5.229490 93.730469 -47.675777 3.583985 125.380852 -1.552734 -3.193359 -28.427734 -57.343746 47.413654 -35.100838 49.406765 43.482891 44.315369 -3.684445 -3.347963 -9.358529 -5.099662 -9.605549 -54.178226 14.872791 6.393991 27.977942 4.613169 2.927170 -2.810307 4.766003 1.489848 
-5.392886 48.896095 64.144615 19.140625 26.611328 -79.214378 27.197266 -0.927734 -18.486326 -19.560547 -1.083984 -0.215028 51.064453 8.115234 2.472081 -91.093750 -6.171875 -44.249100 12.714843 29.999998 -2.597656 -104.658203 55.351566 -26.425781 -139.453125 2.158203 -1.992555 14.873046 38.056644 16.005857 -16.201174 -30.000000 -5.302735 93.935547 -47.900394 3.398438 125.371086 -1.591797 -2.968750 -29.658201 -57.167969 48.380466 -34.387974 49.955086 44.680016 44.513947 -3.704272 -3.536712 -9.230855 -4.667419 -10.604661 -54.651001 15.484662 7.119879 28.525909 4.675056 2.618380 -2.995704 4.765256 1.255670 
-5.532370 48.771301 63.851734 18.632813 27.187500 -80.117188 27.197266 -0.927734 -18.486326 -19.560547 -1.083984 -0.215028 51.064453 8.115234 2.472081 -91.474609 -6.240234 -43.741295 12.714843 29.999998 -2.597656 -104.091797 54.990231 -25.333796 -139.462891 1.982422 -2.158541 15.078126 38.388676 16.119349 -16.367188 -30.000000 -5.200195 93.906250 -47.919922 3.613281 125.371086 -1.591797 -2.968750 -31.494139 -57.050781 49.444931 -33.830242 50.133156 45.268005 44.512730 -3.684555 -3.325662 -8.959891 -5.310573 -11.013538 -55.454678 16.062017 7.240064 29.743988 4.617493 2.908975 -3.777870 4.861359 0.665709 
-5.682131 48.652382 63.566151 18.144533 27.773438 -80.903648 27.197266 -0.927734 -18.486326 -19.560547 -1.083984 -0.215028 51.064453 8.115234 2.472081 -91.845703 -6.289063 -43.242191 12.460937 30.000000 -2.490234 -103.496094 54.833984 -24.208982 -139.453125 2.158203 -1.992555 15.175782 38.730469 16.002205 -16.406250 -30.000000 -5.268554 93.583984 -47.929684 3.889236 125.371086 -1.591797 -2.968750 -32.851559 -57.011719 50.470325 -33.020058 50.259689 46.519913 44.303890 -3.518551 -3.622338 -9.367249 -5.079301 -11.508214 -55.868114 16.709114 7.261461 30.444353 4.564417 2.915112 -4.148163 4.975985 0.296680 
-5.831594 48.544235 63.256374 17.431641 28.378906 -81.796875 27.216797 -0.986328 -18.320482 -19.560547 -1.083984 -0.215028 51.064453 8.115234 2.472081 -91.875000 -6.425782 -43.135857 12.216798 30.000000 -2.387695 -103.183594 54.814453 -23.605299 -139.628922 2.167969 -1.982422 15.341797 38.906250 16.250000 -16.406250 -30.000000 -5.268554 93.193359 -48.232422 4.436076 125.546867 -1.591797 -2.958984 -32.685547 -57.041016 50.401962 -32.306160 50.252338 47.364632 44.128536 -3.694218 -3.336753 -9.640107 -5.288475 -12.103630 -56.736660 17.264839 7.853065 31.325144 4.539227 3.020182 -4.311580 4.694181 -0.323832 
-5.993737 48.406273 62.929935 16.904299 28.789063 -82.651543 27.392578 -0.966797 -18.339844 -19.560547 -1.083984 -0.215028 51.064453 8.115234 2.472081 -91.875000 -6.425782 -43.135857 11.894531 29.999998 -2.089844 -102.724609 55.351563 -23.291016 -139.804688 2.177734 -1.982793 15.556641 39.287113 16.562500 -16.152344 -30.000000 -5.146484 92.597656 -48.320313 5.458985 125.546867 -1.591797 -2.958984 -31.826172 -57.099609 50.099224 -31.509501 50.392246 48.257538 43.776669 -3.733371 -3.497692 -9.946174 -5.652663 -12.799355 -57.180489 17.857098 8.391571 32.021965 4.499217 3.038613 -4.831668 4.409777 -0.520431 
-6.173422 48.282326 62.576412 16.376955 29.375002 -83.315521 27.392578 -0.820313 -18.261717 -19.560547 -1.083984 -0.215028 51.064453 8.115234 2.472081 -92.021484 -6.259766 -43.222660 11.689453 30.000000 -2.021484 -102.929688 55.859375 -23.907932 -139.980469 2.041015 -2.558941 15.625000 39.345703 16.998381 -16.103516 -30.000000 -5.073242 92.275391 -48.447266 5.891130 125.722664 -1.601563 -2.958712 -30.712889 -57.041016 49.357044 -30.666973 50.191811 49.416855 43.427406 -3.743105 -3.628054 -10.219697 -5.894640 -13.382606 -58.024464 18.436068 8.788610 32.915295 4.445468 3.116860 -5.275660 3.882793 -1.274121 
-6.365735 48.165279 62.221626 15.839844 29.785158 -83.833038 27.392578 -0.820313 -18.261717 -19.560547 -1.083984 -0.215028 51.064453 8.115234 2.472081 -91.992188 -6.132813 -42.979557 11.347656 30.000000 -1.708985 -102.548828 56.162113 -23.603516 -139.980469 2.177735 -1.982793 15.166015 39.589844 16.591797 -16.416016 -30.000000 -5.361328 92.636719 -48.984379 5.744585 125.898430 -1.611328 -2.958984 -30.703125 -57.041016 49.357044 -29.533770 50.280403 50.648811 42.924431 -3.792071 -3.596413 -10.634321 -6.016456 -13.934411 -58.489845 18.922382 8.864966 33.622570 4.279953 3.167231 -5.560650 3.680475 -1.470957 
-6.565542 48.040157 61.852951 15.283202 30.195314 -84.365234 27.392578 -0.820313 -18.261717 -19.560547 -1.083984 -0.215028 51.064453 8.115234 2.472081 -92.138672 -5.966797 -42.911171 11.093750 30.000000 -1.596679 -102.138672 56.347660 -23.175463 -140.156250 2.177734 -1.982793 15.224609 39.775391 16.646873 -16.630859 -30.000000 -5.419922 92.919922 -49.599609 5.519907 126.074226 -1.611328 -2.958710 -30.595703 -57.099609 49.112892 -28.958242 50.279720 51.293602 42.568840 -3.684664 -3.538188 -10.657105 -6.464054 -14.455811 -58.964005 19.472454 9.511594 34.320271 4.357253 3.042864 -5.928249 3.222754 -1.555336 
-6.790556 47.890354 61.478256 14.736329 30.605467 -84.653236 27.568359 -0.800781 -18.281389 -19.560547 -1.083984 -0.215028 51.064453 8.115234 2.472081 -92.275391 -5.791016 -42.656254 11.093750 30.000000 -1.596679 -100.566406 56.367188 -22.109375 -140.156250 2.187500 -1.982795 14.960937 39.677738 16.357420 -17.138672 -30.000000 -5.747070 93.593750 -50.039063 5.126953 126.074226 -1.611328 -2.958710 -31.445313 -57.197262 49.863281 -28.322067 49.959381 52.014702 42.204491 -3.840698 -3.575253 -10.958220 -6.874454 -14.549147 -59.624336 19.967373 9.566176 35.561684 4.284712 3.307745 -6.803747 2.706654 -1.916360 
-7.017281 47.784283 61.100204 14.189454 31.025393 -84.838715 27.568359 -0.800781 -18.281389 -19.560547 -1.083984 -0.215028 51.064453 8.115234 2.472081 -92.431641 -5.634766 -42.227993 10.761719 30.000000 -1.386719 -98.759766 55.917969 -20.498047 -139.980469 2.216797 -2.226940 15.117188 39.199219 16.695627 -17.138672 -30.000000 -5.747070 93.867188 -50.195313 4.912109 126.074226 -1.611328 -2.958710 -31.445313 -57.197262 49.863281 -27.737825 49.957348 52.661446 41.851398 -3.860080 -3.515046 -10.578967 -7.107120 -14.920102 -59.667297 20.077890 10.284421 36.081696 4.265263 3.160074 -6.921409 1.969855 -2.010664 
